# xmcd
#
# Track frame offsets:
#	225
#	12858
#	29300
#	52725
#	73920
#	88044
#	111902
#	133685
#	155830
#	175814
#	201451
#	218100
#	237555
#
# Disc length: 3377 seconds
#
# Revision: 1
# Processed by: cddbd v1.5.1PL0 Copyright (c) Steve Scherf et al.
# Submitted via: audiograbber 1.83.01
#
DISCID=bd0d2e0d
DTITLE=Tribble Trouble - the band runs
DYEAR=1998
DGENRE=Blues
TTITLE0=Waas ned
TTITLE1=I wanna have you
TTITLE2=Please take care
TTITLE3=Babe, please be mine
TTITLE4=Funny Morony
TTITLE5=Poor man's Blues
TTITLE6=What do you feel
TTITLE7=You're not my girl
TTITLE8=Running away
TTITLE9=Flowers
TTITLE10=Cold winds
TTITLE11=Superparty
TTITLE12=I'll be home at the day
EXTD=All songs written by Andreas Lindinger.\nDie beste Blues Band östlich des 
EXTD=Missisippi und westlich des Ural
EXTT0=
EXTT1=
EXTT2=
EXTT3=
EXTT4=
EXTT5=
EXTT6=
EXTT7=
EXTT8=
EXTT9=
EXTT10=
EXTT11=
EXTT12=
PLAYORDER=
